<?xml version="1.0" encoding="UTF-8" standalone="no"?>
<!-- Created with Inkscape (http://www.inkscape.org/) -->

<svg
   xmlns:dc="http://purl.org/dc/elements/1.1/"
   xmlns:cc="http://creativecommons.org/ns#"
   xmlns:rdf="http://www.w3.org/1999/02/22-rdf-syntax-ns#"
   xmlns:svg="http://www.w3.org/2000/svg"
   xmlns="http://www.w3.org/2000/svg"
   xmlns:xlink="http://www.w3.org/1999/xlink"
   xmlns:sodipodi="http://sodipodi.sourceforge.net/DTD/sodipodi-0.dtd"
   xmlns:inkscape="http://www.inkscape.org/namespaces/inkscape"
   width="256"
   height="256"
   viewBox="0 0 67.733332 67.733332"
   version="1.1"
   id="svg8"
   inkscape:version="0.92.3 (2405546, 2018-03-11)"
   sodipodi:docname="logo.svg">
  <defs
     id="defs2">
    <inkscape:path-effect
       effect="spiro"
       id="path-effect4552"
       is_visible="true" />
    <inkscape:path-effect
       effect="spiro"
       id="path-effect4548"
       is_visible="true" />
  </defs>
  <sodipodi:namedview
     id="base"
     pagecolor="#ffffff"
     bordercolor="#666666"
     borderopacity="1.0"
     inkscape:pageopacity="0.0"
     inkscape:pageshadow="2"
     inkscape:zoom="1.6328125"
     inkscape:cx="62.373361"
     inkscape:cy="146.04032"
     inkscape:document-units="mm"
     inkscape:current-layer="layer1"
     showgrid="false"
     inkscape:pagecheckerboard="true"
     inkscape:window-width="1850"
     inkscape:window-height="1016"
     inkscape:window-x="70"
     inkscape:window-y="27"
     inkscape:window-maximized="1"
     units="px" />
  <metadata
     id="metadata5">
    <rdf:RDF>
      <cc:Work
         rdf:about="">
        <dc:format>image/svg+xml</dc:format>
        <dc:type
           rdf:resource="http://purl.org/dc/dcmitype/StillImage" />
        <dc:title />
      </cc:Work>
    </rdf:RDF>
  </metadata>
  <g
     inkscape:label="Layer 1"
     inkscape:groupmode="layer"
     id="layer1"
     transform="translate(0,-229.26672)">
    <g
       id="g1030"
       transform="translate(6.6666655e-8,1.6666666e-6)">
      <path
         inkscape:connector-curvature="0"
         id="path822"
         d="M 33.866666,230.82964 A 32.319265,32.302364 0 0 0 1.5474002,263.1318 32.319265,32.302364 0 0 0 33.866666,295.43713 32.319265,32.302364 0 0 0 66.185933,263.1318 32.319265,32.302364 0 0 0 33.866666,230.82964 Z m 0,24.23139 a 8.0798165,8.0755902 0 0 1 8.079817,8.07713 8.0798165,8.0755902 0 0 1 -8.079817,8.07713 8.0798165,8.0755902 0 0 1 -8.079814,-8.07713 8.0798165,8.0755902 0 0 1 8.079814,-8.07713 z"
         style="opacity:1;fill:#ffb380;fill-opacity:1;fill-rule:nonzero;stroke:#000000;stroke-width:1.58749998;stroke-miterlimit:4;stroke-dasharray:none;stroke-opacity:1" />
      <path
         id="path829"
         d="m 33.866667,231.62226 a 31.526259,31.511121 0 0 0 -31.52626,31.51112 31.526259,31.511121 0 0 0 12.408822,25.02567 c 0.02353,-0.62062 0.0018,-1.24617 -0.02524,-1.86653 -0.05275,-1.21036 -0.118472,-2.43509 0.119112,-3.62309 0.118793,-0.59399 0.313827,-1.17512 0.612719,-1.70208 0.298891,-0.52696 0.703599,-0.99859 1.202221,-1.34289 0.856341,-0.59133 1.960802,-0.77562 2.98587,-0.59528 1.025066,0.18041 1.970537,0.70564 2.741589,1.40444 1.542104,1.3976 2.364127,3.40152 3.095897,5.34939 0.731767,1.94784 1.457666,3.97049 2.876851,5.49265 0.709592,0.76107 1.589902,1.37913 2.58412,1.68694 0.994216,0.30784 2.105152,0.28829 3.048453,-0.15134 0.680878,-0.31736 1.25629,-0.84164 1.679678,-1.46195 0.423389,-0.6203 0.699458,-1.33409 0.857,-2.06832 0.315082,-1.46841 0.16275,-2.99244 -0.01514,-4.48371 -0.177794,-1.49128 -0.380394,-3.00267 -0.163527,-4.48877 0.108431,-0.74304 0.323833,-1.47558 0.683379,-2.13491 0.359545,-0.65933 0.867189,-1.24388 1.500001,-1.6486 0.931933,-0.59603 2.102795,-0.77089 3.190782,-0.57005 1.087986,0.20083 2.092795,0.75903 2.910162,1.50433 1.634736,1.49059 2.493964,3.6364 3.152425,5.74791 0.658462,2.11152 1.184188,4.30342 2.345896,6.18579 0.10278,0.16655 0.217217,0.326 0.330081,0.48631 a 31.526259,31.511121 0 0 0 14.931369,-26.74591 31.526259,31.511121 0 0 0 -31.52626,-31.51112 z m 0,22.72933 a 8.7860063,8.7817881 0 0 1 8.786007,8.78179 8.7860063,8.7817881 0 0 1 -8.786007,8.78179 8.7860063,8.7817881 0 0 1 -8.786007,-8.78179 8.7860063,8.7817881 0 0 1 8.786007,-8.78179 z"
         style="opacity:1;fill:#ff80b2;fill-opacity:1;fill-rule:nonzero;stroke:none;stroke-width:2.38485956;stroke-miterlimit:4;stroke-dasharray:none;stroke-opacity:1"
         inkscape:connector-curvature="0" />
      <rect
         transform="matrix(-0.94617893,0.32364399,-0.32392239,-0.94608366,0,0)"
         style="opacity:1;fill:#55ddff;fill-opacity:1;fill-rule:nonzero;stroke:none;stroke-width:0.6205948;stroke-miterlimit:4;stroke-dasharray:none;stroke-opacity:1"
         id="use5820"
         width="1.0474597"
         height="3.5951674"
         x="79.819992"
         y="-263.24753"
         ry="0.61791933"
         inkscape:transform-center-x="0.0075001509"
         inkscape:transform-center-y="-0.064883329" />
      <rect
         transform="matrix(-0.99449329,0.10480031,-0.10489991,-0.99448278,0,0)"
         style="opacity:1;fill:#55ddff;fill-opacity:1;fill-rule:nonzero;stroke:none;stroke-width:0.6205948;stroke-miterlimit:4;stroke-dasharray:none;stroke-opacity:1"
         id="use5822"
         width="1.0475068"
         height="3.5950053"
         x="21.436132"
         y="-266.9458"
         ry="0.61789149"
         inkscape:transform-center-x="0.0075001509"
         inkscape:transform-center-y="-0.064883329" />
      <rect
         transform="matrix(-0.80082502,-0.59889839,0.59926732,-0.80054899,0,0)"
         style="opacity:1;fill:#55ddff;fill-opacity:1;fill-rule:nonzero;stroke:none;stroke-width:0.62059486;stroke-miterlimit:4;stroke-dasharray:none;stroke-opacity:1"
         id="use5824"
         width="1.0473319"
         height="3.5956063"
         x="-159.63448"
         y="-205.41496"
         ry="0.61799479"
         inkscape:transform-center-x="0.0075001509"
         inkscape:transform-center-y="-0.064883329" />
      <rect
         transform="matrix(-0.65747168,-0.75347926,0.75379202,-0.65711307,0,0)"
         style="opacity:1;fill:#55ddff;fill-opacity:1;fill-rule:nonzero;stroke:none;stroke-width:0.62059486;stroke-miterlimit:4;stroke-dasharray:none;stroke-opacity:1"
         id="use5826"
         width="1.0472268"
         height="3.5959673"
         x="-202.08934"
         y="-154.66853"
         ry="0.61805683"
         inkscape:transform-center-x="0.0075001509"
         inkscape:transform-center-y="-0.064883329" />
      <rect
         transform="matrix(0.9937368,-0.11174605,0.11185209,0.99372487,0,0)"
         style="opacity:1;fill:#55ddff;fill-opacity:1;fill-rule:nonzero;stroke:none;stroke-width:0.6205948;stroke-miterlimit:4;stroke-dasharray:none;stroke-opacity:1"
         id="use5828"
         width="1.0475061"
         height="3.5950079"
         x="-9.3678846"
         y="255.08731"
         ry="0.61789191"
         inkscape:transform-center-x="0.0075001509"
         inkscape:transform-center-y="-0.064883329" />
      <rect
         transform="matrix(0.99994037,0.01092019,-0.01093068,0.99994026,0,0)"
         style="opacity:1;fill:#55ddff;fill-opacity:1;fill-rule:nonzero;stroke:none;stroke-width:0.6205948;stroke-miterlimit:4;stroke-dasharray:none;stroke-opacity:1"
         id="use5830"
         width="1.0475123"
         height="3.5949864"
         x="20.297529"
         y="264.32394"
         ry="0.61788827"
         inkscape:transform-center-x="0.0075001509"
         inkscape:transform-center-y="-0.064883329" />
      <rect
         transform="matrix(0.97522256,-0.22122601,0.22142819,0.97517668,0,0)"
         style="opacity:1;fill:#55ddff;fill-opacity:1;fill-rule:nonzero;stroke:none;stroke-width:0.6205948;stroke-miterlimit:4;stroke-dasharray:none;stroke-opacity:1"
         id="use5832"
         width="1.0474877"
         height="3.5950711"
         x="-38.97263"
         y="266.02777"
         ry="0.61790276"
         inkscape:transform-center-x="0.0075001509"
         inkscape:transform-center-y="-0.064883329" />
      <rect
         transform="matrix(-0.95912019,0.28299906,-0.2832492,-0.95904634,0,0)"
         style="opacity:1;fill:#55ddff;fill-opacity:1;fill-rule:nonzero;stroke:none;stroke-width:0.6205948;stroke-miterlimit:4;stroke-dasharray:none;stroke-opacity:1"
         id="use5834"
         width="1.0474721"
         height="3.5951247"
         x="50.101559"
         y="-279.46024"
         ry="0.61791199"
         inkscape:transform-center-x="0.0075001509"
         inkscape:transform-center-y="-0.064883329" />
      <rect
         transform="matrix(-0.01659326,-0.99986232,0.99986259,-0.01657734,0,0)"
         style="opacity:1;fill:#55ddff;fill-opacity:1;fill-rule:nonzero;stroke:none;stroke-width:0.6205948;stroke-miterlimit:4;stroke-dasharray:none;stroke-opacity:1"
         id="use5836"
         width="1.0470096"
         height="3.5967128"
         x="-286.44806"
         y="26.081957"
         ry="0.61818492"
         inkscape:transform-center-x="0.0075001509"
         inkscape:transform-center-y="-0.064883329" />
      <rect
         transform="matrix(-0.42044104,-0.90731986,0.90747381,-0.42010866,0,0)"
         style="opacity:1;fill:#55ddff;fill-opacity:1;fill-rule:nonzero;stroke:none;stroke-width:0.6205948;stroke-miterlimit:4;stroke-dasharray:none;stroke-opacity:1"
         id="use5838"
         width="1.0470983"
         height="3.5964081"
         x="-263.22052"
         y="-66.463554"
         ry="0.61813259"
         inkscape:transform-center-x="0.0075001509"
         inkscape:transform-center-y="-0.064883329" />
      <rect
         transform="matrix(-0.74547497,-0.66653362,0.66688935,-0.74515676,0,0)"
         style="opacity:1;fill:#55ddff;fill-opacity:1;fill-rule:nonzero;stroke:none;stroke-width:0.62059486;stroke-miterlimit:4;stroke-dasharray:none;stroke-opacity:1"
         id="use5840"
         width="1.0472889"
         height="3.5957541"
         x="-222.14606"
         y="-166.96565"
         ry="0.61802018"
         inkscape:transform-center-x="0.0075001509"
         inkscape:transform-center-y="-0.064883329" />
      <rect
         transform="matrix(-0.54693916,-0.83717236,0.83741278,-0.54657098,0,0)"
         style="opacity:1;fill:#55ddff;fill-opacity:1;fill-rule:nonzero;stroke:none;stroke-width:0.62059486;stroke-miterlimit:4;stroke-dasharray:none;stroke-opacity:1"
         id="use5842"
         width="1.0471598"
         height="3.5961971"
         x="-260.51117"
         y="-101.72931"
         ry="0.61809635"
         inkscape:transform-center-x="0.0075001509"
         inkscape:transform-center-y="-0.064883329" />
      <rect
         transform="matrix(0.26974574,0.96293158,-0.96299883,0.26950558,0,0)"
         style="opacity:1;fill:#55ddff;fill-opacity:1;fill-rule:nonzero;stroke:none;stroke-width:0.6205948;stroke-miterlimit:4;stroke-dasharray:none;stroke-opacity:1"
         id="use5844"
         width="1.0470459"
         height="3.5965877"
         x="281.73807"
         y="17.225531"
         ry="0.61816347"
         inkscape:transform-center-x="0.0075001509"
         inkscape:transform-center-y="-0.064883329" />
      <rect
         transform="matrix(-0.68216714,0.73119628,-0.731523,-0.68181677,0,0)"
         style="opacity:1;fill:#55ddff;fill-opacity:1;fill-rule:nonzero;stroke:none;stroke-width:0.62059486;stroke-miterlimit:4;stroke-dasharray:none;stroke-opacity:1"
         id="use5846"
         width="1.0472434"
         height="3.5959101"
         x="167.36081"
         y="-232.59746"
         ry="0.618047"
         inkscape:transform-center-x="0.0075001509"
         inkscape:transform-center-y="-0.064883329" />
      <rect
         transform="matrix(-0.97789143,0.20911325,-0.20930541,-0.97785032,0,0)"
         style="opacity:1;fill:#55ddff;fill-opacity:1;fill-rule:nonzero;stroke:none;stroke-width:0.6205948;stroke-miterlimit:4;stroke-dasharray:none;stroke-opacity:1"
         id="use5848"
         width="1.0474904"
         height="3.5950618"
         x="10.368764"
         y="-282.23849"
         ry="0.61790121"
         inkscape:transform-center-x="0.0075001509"
         inkscape:transform-center-y="-0.064883329" />
      <rect
         transform="matrix(-0.45123876,0.89240326,-0.89257768,-0.45089365,0,0)"
         style="opacity:1;fill:#55ddff;fill-opacity:1;fill-rule:nonzero;stroke:none;stroke-width:0.6205948;stroke-miterlimit:4;stroke-dasharray:none;stroke-opacity:1"
         id="use5850"
         width="1.0471117"
         height="3.5963619"
         x="216.88919"
         y="-165.83887"
         ry="0.61812466"
         inkscape:transform-center-x="0.0075001509"
         inkscape:transform-center-y="-0.064883329" />
      <rect
         transform="matrix(0.9792908,-0.20245872,0.2026453,0.97925221,0,0)"
         style="opacity:1;fill:#55ddff;fill-opacity:1;fill-rule:nonzero;stroke:none;stroke-width:0.6205948;stroke-miterlimit:4;stroke-dasharray:none;stroke-opacity:1"
         id="use5852"
         width="1.0474918"
         height="3.595057"
         x="-7.6555529"
         y="254.13423"
         ry="0.61790037"
         inkscape:transform-center-x="0.0075001509"
         inkscape:transform-center-y="-0.064883329" />
      <rect
         transform="matrix(0.95007023,0.31203614,-0.31230677,0.9499813,0,0)"
         style="opacity:1;fill:#55ddff;fill-opacity:1;fill-rule:nonzero;stroke:none;stroke-width:0.6205948;stroke-miterlimit:4;stroke-dasharray:none;stroke-opacity:1"
         id="use5854"
         width="1.0474634"
         height="3.5951545"
         x="119.05144"
         y="225.61885"
         ry="0.61791712"
         inkscape:transform-center-x="0.0075001509"
         inkscape:transform-center-y="-0.064883329" />
      <rect
         transform="matrix(0.8242016,0.56629649,-0.56666601,0.82394759,0,0)"
         style="opacity:1;fill:#55ddff;fill-opacity:1;fill-rule:nonzero;stroke:none;stroke-width:0.6205948;stroke-miterlimit:4;stroke-dasharray:none;stroke-opacity:1"
         id="use5856"
         width="1.047351"
         height="3.5955405"
         x="176.17603"
         y="173.93401"
         ry="0.61798346"
         inkscape:transform-center-x="0.0075001509"
         inkscape:transform-center-y="-0.064883329" />
      <rect
         transform="matrix(0.8941455,-0.44777653,0.44812046,0.89397319,0,0)"
         style="opacity:1;fill:#55ddff;fill-opacity:1;fill-rule:nonzero;stroke:none;stroke-width:0.6205948;stroke-miterlimit:4;stroke-dasharray:none;stroke-opacity:1"
         id="use5858"
         width="1.0474114"
         height="3.5953329"
         x="-74.616844"
         y="229.13969"
         ry="0.61794776"
         inkscape:transform-center-x="0.0075001509"
         inkscape:transform-center-y="-0.064883329" />
      <rect
         transform="matrix(0.37020784,0.92894895,-0.92907115,0.36990106,0,0)"
         style="opacity:1;fill:#55ddff;fill-opacity:1;fill-rule:nonzero;stroke:none;stroke-width:0.6205948;stroke-miterlimit:4;stroke-dasharray:none;stroke-opacity:1"
         id="use5860"
         width="1.0470784"
         height="3.5964768"
         x="233.6465"
         y="57.407215"
         ry="0.61814439"
         inkscape:transform-center-x="0.0075001509"
         inkscape:transform-center-y="-0.064883329" />
      <rect
         transform="matrix(-0.73777619,0.6750454,-0.67539827,-0.73745317,0,0)"
         style="opacity:1;fill:#55ddff;fill-opacity:1;fill-rule:nonzero;stroke:none;stroke-width:0.62059486;stroke-miterlimit:4;stroke-dasharray:none;stroke-opacity:1"
         id="use5862"
         width="1.0472831"
         height="3.5957737"
         x="143.88951"
         y="-199.44342"
         ry="0.61802357"
         inkscape:transform-center-x="0.0075001509"
         inkscape:transform-center-y="-0.064883329" />
      <rect
         transform="matrix(-0.99421499,-0.10740837,0.10751039,-0.99420396,0,0)"
         style="opacity:1;fill:#55ddff;fill-opacity:1;fill-rule:nonzero;stroke:none;stroke-width:0.6205948;stroke-miterlimit:4;stroke-dasharray:none;stroke-opacity:1"
         id="use5864"
         width="1.0475066"
         height="3.5950062"
         x="-55.077843"
         y="-247.87654"
         ry="0.61789161"
         inkscape:transform-center-x="0.0075001509"
         inkscape:transform-center-y="-0.064883329" />
      <rect
         transform="matrix(-0.92896278,0.37017314,-0.37048007,-0.92884041,0,0)"
         style="opacity:1;fill:#55ddff;fill-opacity:1;fill-rule:nonzero;stroke:none;stroke-width:0.6205948;stroke-miterlimit:4;stroke-dasharray:none;stroke-opacity:1"
         id="use5866"
         width="1.0474434"
         height="3.5952232"
         x="70.771652"
         y="-235.39642"
         ry="0.61792892"
         inkscape:transform-center-x="0.0075001509"
         inkscape:transform-center-y="-0.064883329" />
      <rect
         transform="matrix(-0.02807033,-0.99960595,0.99960671,-0.0280434,0,0)"
         style="opacity:1;fill:#55ddff;fill-opacity:1;fill-rule:nonzero;stroke:none;stroke-width:0.6205948;stroke-miterlimit:4;stroke-dasharray:none;stroke-opacity:1"
         id="use5868"
         width="1.0470098"
         height="3.5967119"
         x="-248.71356"
         y="9.2243395"
         ry="0.6181848"
         inkscape:transform-center-x="0.0075001509"
         inkscape:transform-center-y="-0.064883329" />
      <rect
         transform="matrix(-0.99356351,0.11327643,-0.11338389,-0.99355125,0,0)"
         style="opacity:1;fill:#55ddff;fill-opacity:1;fill-rule:nonzero;stroke:none;stroke-width:0.6205948;stroke-miterlimit:4;stroke-dasharray:none;stroke-opacity:1"
         id="use5870"
         width="1.0475059"
         height="3.5950086"
         x="18.823164"
         y="-259.26334"
         ry="0.61789203"
         inkscape:transform-center-x="0.0075001509"
         inkscape:transform-center-y="-0.064883329" />
      <rect
         transform="matrix(0.99115972,0.13267404,-0.13279929,0.99114295,0,0)"
         style="opacity:1;fill:#55ddff;fill-opacity:1;fill-rule:nonzero;stroke:none;stroke-width:0.6205948;stroke-miterlimit:4;stroke-dasharray:none;stroke-opacity:1"
         id="use5872"
         width="1.0475036"
         height="3.5950167"
         x="42.181053"
         y="247.78305"
         ry="0.61789346"
         inkscape:transform-center-x="0.0075001509"
         inkscape:transform-center-y="-0.064883329" />
      <rect
         transform="matrix(-0.99162487,-0.12915153,0.12927357,-0.99160897,0,0)"
         style="opacity:1;fill:#55ddff;fill-opacity:1;fill-rule:nonzero;stroke:none;stroke-width:0.6205948;stroke-miterlimit:4;stroke-dasharray:none;stroke-opacity:1"
         id="use5874"
         width="1.0475039"
         height="3.595015"
         x="-42.874592"
         y="-245.77219"
         ry="0.61789316"
         inkscape:transform-center-x="0.0075001509"
         inkscape:transform-center-y="-0.064883329" />
      <rect
         transform="matrix(-0.70104615,0.71311591,-0.71345245,-0.70070365,0,0)"
         style="opacity:1;fill:#55ddff;fill-opacity:1;fill-rule:nonzero;stroke:none;stroke-width:0.62059486;stroke-miterlimit:4;stroke-dasharray:none;stroke-opacity:1"
         id="use5876"
         width="1.0472565"
         height="3.595865"
         x="162.88481"
         y="-181.63193"
         ry="0.61803925"
         inkscape:transform-center-x="0.0075001509"
         inkscape:transform-center-y="-0.064883329" />
      <rect
         transform="matrix(0.59952982,-0.80035242,0.80062859,0.59916096,0,0)"
         style="opacity:1;fill:#55ddff;fill-opacity:1;fill-rule:nonzero;stroke:none;stroke-width:0.62059486;stroke-miterlimit:4;stroke-dasharray:none;stroke-opacity:1"
         id="use5878"
         width="1.0471902"
         height="3.5960929"
         x="-174.73108"
         y="163.8485"
         ry="0.61807841"
         inkscape:transform-center-x="0.0075001509"
         inkscape:transform-center-y="-0.064883329" />
      <rect
         transform="matrix(0.52237176,0.85271786,-0.85294124,0.52200693,0,0)"
         style="opacity:1;fill:#55ddff;fill-opacity:1;fill-rule:nonzero;stroke:none;stroke-width:0.6205948;stroke-miterlimit:4;stroke-dasharray:none;stroke-opacity:1"
         id="use5880"
         width="1.0471466"
         height="3.5962424"
         x="235.72183"
         y="82.104492"
         ry="0.6181041"
         inkscape:transform-center-x="0.0075001509"
         inkscape:transform-center-y="-0.064883329" />
      <rect
         transform="matrix(0.74949871,0.66200581,-0.66236296,0.74918309,0,0)"
         style="opacity:1;fill:#55ddff;fill-opacity:1;fill-rule:nonzero;stroke:none;stroke-width:0.6205948;stroke-miterlimit:4;stroke-dasharray:none;stroke-opacity:1"
         id="use5882"
         width="1.0472919"
         height="3.5957437"
         x="206.44215"
         y="152.31032"
         ry="0.61801839"
         inkscape:transform-center-x="0.0075001509"
         inkscape:transform-center-y="-0.064883329" />
      <rect
         transform="matrix(0.78155791,-0.6238327,0.6241987,0.78126563,0,0)"
         style="opacity:1;fill:#55ddff;fill-opacity:1;fill-rule:nonzero;stroke:none;stroke-width:0.62059486;stroke-miterlimit:4;stroke-dasharray:none;stroke-opacity:1"
         id="use5884"
         width="1.0473166"
         height="3.595659"
         x="-119.63593"
         y="242.99686"
         ry="0.61800385"
         inkscape:transform-center-x="0.0075001509"
         inkscape:transform-center-y="-0.064883329" />
      <rect
         transform="matrix(0.1553289,-0.98786281,0.98788568,0.15518335,0,0)"
         style="opacity:1;fill:#55ddff;fill-opacity:1;fill-rule:nonzero;stroke:none;stroke-width:0.6205948;stroke-miterlimit:4;stroke-dasharray:none;stroke-opacity:1"
         id="use5886"
         width="1.0470215"
         height="3.5966716"
         x="-249.72646"
         y="98.372948"
         ry="0.61817789"
         inkscape:transform-center-x="0.0075001509"
         inkscape:transform-center-y="-0.064883329" />
      <rect
         transform="matrix(-0.98947602,-0.14469693,0.14483307,-0.9894561,0,0)"
         style="opacity:1;fill:#55ddff;fill-opacity:1;fill-rule:nonzero;stroke:none;stroke-width:0.6205948;stroke-miterlimit:4;stroke-dasharray:none;stroke-opacity:1"
         id="use5888"
         width="1.0475018"
         height="3.5950224"
         x="-86.731552"
         y="-253.19911"
         ry="0.61789441"
         inkscape:transform-center-x="0.0075001509"
         inkscape:transform-center-y="-0.064883329" />
      <rect
         transform="matrix(0.99274973,-0.12019973,0.12031357,0.99273594,0,0)"
         style="opacity:1;fill:#55ddff;fill-opacity:1;fill-rule:nonzero;stroke:none;stroke-width:0.6205948;stroke-miterlimit:4;stroke-dasharray:none;stroke-opacity:1"
         id="use5890"
         width="1.0475051"
         height="3.5950112"
         x="15.930372"
         y="259.25009"
         ry="0.6178925"
         inkscape:transform-center-x="0.0075001509"
         inkscape:transform-center-y="-0.064883329" />
      <rect
         transform="matrix(-0.94017024,0.34070503,-0.34099438,-0.94006533,0,0)"
         style="opacity:1;fill:#55ddff;fill-opacity:1;fill-rule:nonzero;stroke:none;stroke-width:0.6205948;stroke-miterlimit:4;stroke-dasharray:none;stroke-opacity:1"
         id="use5892"
         width="1.047454"
         height="3.5951869"
         x="44.974796"
         y="-249.31339"
         ry="0.61792272"
         inkscape:transform-center-x="0.0075001509"
         inkscape:transform-center-y="-0.064883329" />
      <rect
         transform="matrix(0.99473992,-0.10243284,0.10253024,0.99472989,0,0)"
         style="opacity:1;fill:#55ddff;fill-opacity:1;fill-rule:nonzero;stroke:none;stroke-width:0.6205948;stroke-miterlimit:4;stroke-dasharray:none;stroke-opacity:1"
         id="use5894"
         width="1.047507"
         height="3.5950046"
         x="9.3198233"
         y="248.85689"
         ry="0.61789131"
         inkscape:transform-center-x="0.0075001509"
         inkscape:transform-center-y="-0.064883329" />
      <rect
         transform="matrix(0.62578324,-0.77999701,0.7802903,0.6254175,0,0)"
         style="opacity:1;fill:#55ddff;fill-opacity:1;fill-rule:nonzero;stroke:none;stroke-width:0.62059486;stroke-miterlimit:4;stroke-dasharray:none;stroke-opacity:1"
         id="use5896"
         width="1.0472063"
         height="3.5960374"
         x="-173.5919"
         y="163.88211"
         ry="0.61806887"
         inkscape:transform-center-x="0.0075001509"
         inkscape:transform-center-y="-0.064883329" />
      <rect
         transform="matrix(0.19248534,-0.98129985,0.98133474,0.19230738,0,0)"
         style="opacity:1;fill:#55ddff;fill-opacity:1;fill-rule:nonzero;stroke:none;stroke-width:0.6205948;stroke-miterlimit:4;stroke-dasharray:none;stroke-opacity:1"
         id="use5898"
         width="1.0470281"
         height="3.5966492"
         x="-224.77391"
         y="89.371353"
         ry="0.61817402"
         inkscape:transform-center-x="0.0075001509"
         inkscape:transform-center-y="-0.064883329" />
      <rect
         transform="matrix(-0.75228497,0.65883785,-0.65919594,-0.75197122,0,0)"
         style="opacity:1;fill:#55ddff;fill-opacity:1;fill-rule:nonzero;stroke:none;stroke-width:0.62059486;stroke-miterlimit:4;stroke-dasharray:none;stroke-opacity:1"
         id="use5900"
         width="1.047294"
         height="3.5957365"
         x="128.38406"
         y="-210.49872"
         ry="0.61801714"
         inkscape:transform-center-x="0.0075001509"
         inkscape:transform-center-y="-0.064883329" />
      <use
         transform="matrix(-0.91859177,-0.39501797,0.39539758,-0.91859178,-66.99894,544.03866)"
         height="100%"
         width="100%"
         y="0"
         x="0"
         xlink:href="#use5834"
         inkscape:spray-origin="#rect4616"
         id="use5902" />
      <use
         transform="matrix(-0.1336838,0.99054819,-0.9915001,-0.13368379,304.45357,284.22826)"
         height="100%"
         width="100%"
         y="0"
         x="0"
         xlink:href="#use5834"
         inkscape:spray-origin="#rect4616"
         id="use5904" />
      <use
         transform="matrix(0.99476696,0.10212089,-0.10221902,0.99476696,33.061531,-5.993396)"
         height="100%"
         width="100%"
         y="0"
         x="0"
         xlink:href="#use5834"
         inkscape:spray-origin="#rect4616"
         id="use5906" />
      <use
         transform="matrix(0.34853166,-0.93684695,0.93774726,0.34853168,-233.53586,203.75269)"
         height="100%"
         width="100%"
         y="0"
         x="0"
         xlink:href="#use5834"
         inkscape:spray-origin="#rect4616"
         id="use5908" />
      <use
         transform="matrix(0.46865554,0.88295684,-0.88380536,0.46865553,279.41063,113.90903)"
         height="100%"
         width="100%"
         y="0"
         x="0"
         xlink:href="#use5834"
         inkscape:spray-origin="#rect4616"
         id="use5910" />
      <use
         transform="matrix(-0.83831573,0.54492328,-0.54544694,-0.83831573,231.38948,480.60467)"
         height="100%"
         width="100%"
         y="0"
         x="0"
         xlink:href="#use5834"
         inkscape:spray-origin="#rect4616"
         id="use5912" />
      <use
         transform="matrix(-0.95425588,0.2988476,-0.2991348,-0.95425587,170.59203,513.83689)"
         height="100%"
         width="100%"
         y="0"
         x="0"
         xlink:href="#use5834"
         inkscape:spray-origin="#rect4616"
         id="use5914" />
      <use
         transform="matrix(-0.72604357,0.68731853,-0.68797904,-0.72604358,268.17699,439.89562)"
         height="100%"
         width="100%"
         y="0"
         x="0"
         xlink:href="#use5834"
         inkscape:spray-origin="#rect4616"
         id="use5916" />
      <use
         transform="matrix(0.05663587,-0.99791552,0.99887451,0.05663587,-235.02621,262.7642)"
         height="100%"
         width="100%"
         y="0"
         x="0"
         xlink:href="#use5834"
         inkscape:spray-origin="#rect4616"
         id="use5918" />
      <use
         transform="matrix(0.6224608,0.7822752,-0.78302696,0.6224608,241.78334,40.098726)"
         height="100%"
         width="100%"
         y="0"
         x="0"
         xlink:href="#use5834"
         inkscape:spray-origin="#rect4616"
         id="use5920" />
      <use
         transform="matrix(-0.32663301,0.94469743,-0.94560528,-0.32663301,313.24435,298.53069)"
         height="100%"
         width="100%"
         y="0"
         x="0"
         xlink:href="#use5834"
         inkscape:spray-origin="#rect4616"
         id="use5922" />
      <use
         transform="matrix(0.32248294,-0.94612077,0.94702999,0.32248294,-240.28185,182.67589)"
         height="100%"
         width="100%"
         y="0"
         x="0"
         xlink:href="#use5834"
         inkscape:spray-origin="#rect4616"
         id="use5924" />
      <use
         transform="matrix(0.72814047,-0.68509884,0.68575722,0.72814045,-190.0992,68.629251)"
         height="100%"
         width="100%"
         y="0"
         x="0"
         xlink:href="#use5834"
         inkscape:spray-origin="#rect4616"
         id="use5926" />
      <use
         transform="matrix(0.99348728,-0.11388835,0.1139978,0.99348728,-29.856291,-25.979558)"
         height="100%"
         width="100%"
         y="0"
         x="0"
         xlink:href="#use5834"
         inkscape:spray-origin="#rect4616"
         id="use5928" />
      <use
         transform="matrix(0.16589822,-0.98566939,0.98661661,0.16589822,-265.6113,240.09684)"
         height="100%"
         width="100%"
         y="0"
         x="0"
         xlink:href="#use5834"
         inkscape:spray-origin="#rect4616"
         id="use5930" />
      <use
         transform="matrix(-0.65713308,0.75341265,-0.75413667,-0.65713309,242.57624,426.08874)"
         height="100%"
         width="100%"
         y="0"
         x="0"
         xlink:href="#use5834"
         inkscape:spray-origin="#rect4616"
         id="use5932" />
      <use
         transform="matrix(-0.09584668,-0.99491818,0.99587428,-0.09584668,-266.61942,323.87078)"
         height="100%"
         width="100%"
         y="0"
         x="0"
         xlink:href="#use5834"
         inkscape:spray-origin="#rect4616"
         id="use5934" />
      <use
         transform="matrix(0.40803695,0.91252706,-0.91340399,0.40803693,257.71375,135.82806)"
         height="100%"
         width="100%"
         y="0"
         x="0"
         xlink:href="#use5834"
         inkscape:spray-origin="#rect4616"
         id="use5936" />
      <use
         transform="matrix(0.79624965,0.60467768,-0.60525878,0.79624965,158.94406,39.992671)"
         height="100%"
         width="100%"
         y="0"
         x="0"
         xlink:href="#use5834"
         inkscape:spray-origin="#rect4616"
         id="use5938" />
      <use
         transform="matrix(-0.24073255,0.97012547,-0.97105774,-0.24073255,288.44669,315.17255)"
         height="100%"
         width="100%"
         y="0"
         x="0"
         xlink:href="#use5834"
         inkscape:spray-origin="#rect4616"
         id="use5940" />
      <use
         transform="matrix(0.25601742,0.96620801,-0.96713655,0.25601742,276.17056,169.70587)"
         height="100%"
         width="100%"
         y="0"
         x="0"
         xlink:href="#use5834"
         inkscape:spray-origin="#rect4616"
         id="use5942" />
      <use
         transform="matrix(-0.8585862,-0.51242307,0.51291551,-0.8585862,-103.41931,520.47074)"
         height="100%"
         width="100%"
         y="0"
         x="0"
         xlink:href="#use5834"
         inkscape:spray-origin="#rect4616"
         id="use5944" />
      <use
         transform="matrix(0.1811455,-0.9829841,0.98392874,0.18114551,-262.05911,238.75118)"
         height="100%"
         width="100%"
         y="0"
         x="0"
         xlink:href="#use5834"
         inkscape:spray-origin="#rect4616"
         id="use5946" />
      <use
         transform="matrix(-0.91936592,0.39321459,-0.39359247,-0.91936593,165.11797,520.29251)"
         height="100%"
         width="100%"
         y="0"
         x="0"
         xlink:href="#use5834"
         inkscape:spray-origin="#rect4616"
         id="use5948" />
      <use
         transform="matrix(0.01399046,-0.99942202,1.0003825,0.01399046,-254.80056,303.15549)"
         height="100%"
         width="100%"
         y="0"
         x="0"
         xlink:href="#use5834"
         inkscape:spray-origin="#rect4616"
         id="use5950" />
      <use
         transform="matrix(0.65119667,-0.75854463,0.75927359,0.65119666,-206.52855,121.85693)"
         height="100%"
         width="100%"
         y="0"
         x="0"
         xlink:href="#use5834"
         inkscape:spray-origin="#rect4616"
         id="use5952" />
    </g>
  </g>
</svg>
